<svg xmlns="http://www.w3.org/2000/svg" xmlns:xlink="http://www.w3.org/1999/xlink" width="111" height="142" viewBox="0 0 111 142"><defs><path id="2xfta" d="M79.4 40a36.74 36.74 0 0 1 36.78 36.79h-.42v.04l.05.24a6.14 6.14 0 0 1-12.3 0l-.05-.24c0-.8.16-1.58.44-2.28a24.54 24.54 0 0 0-24.44-22.1A24.53 24.53 0 0 0 54.9 76.79h-.06v.04l.04 18.6 68.08-.05c6.2.21 11.25 5 11.83 11.1l.04 62.9a12.29 12.29 0 0 1-12.29 11.86h-6.15v.01l-73.79.04v-.05h-6.15c-6.8 0-12.3-5.49-12.3-12.27v-6.51l-.05-48.3h.05v-6.51c0-6.37 4.86-11.6 11.07-12.21h7.37v-.06h.01v-5.75h-.03l-.03-12.8c0-.3.03-.6.07-.9a36.74 36.74 0 0 1 36.78-35.94zm-29.9 67.7a6.22 6.22 0 0 1-1.5 0h-3.25l4 .1c-9.6 0-12.17 1.74-12.3 11.43l.08-11.53h-.13l.05 61.33 75.82-.04c7.75-.3 10.03-2.5 10.26-10.94l-.03-40.33c-.4-8.36-3.18-9.93-12.25-9.93l5.58-.14zm73.03 61.28v-9.8l-.07 9.76-6.86.04zm-.04-61.33h-.03l.03 4.22zm-73.74 61.37h-.9zm-12.3-12.46v0zm0 .84c.13 9.38 2.54 11.49 11.4 11.61l-11.32-.07zm0-38.17v0z"/></defs><g><g transform="translate(-24 -40)"><use fill="#fff" xlink:href="#2xfta"/><use fill="#3cc2f9" xlink:href="#2xfta"/></g></g></svg>
