
<svg xmlns="http://www.w3.org/2000/svg" xmlns:xlink="http://www.w3.org/1999/xlink" x="0px" y="0px"
	 viewBox="0 0 194.3 189.1" style="enable-background:new 0 0 194.3 189.1;" xml:space="preserve">
<style type="text/css">
	.st0{fill:none;stroke:#38B9EF;stroke-width:10;stroke-miterlimit:10;}
	.st1{fill:none;stroke:#38B9EF;stroke-width:10;stroke-linecap:round;stroke-linejoin:round;}
</style>
<title>02_scalpel</title>
<g>
	<path class="st0" d="M67.8,91.3l-18.5,18.5c-4.9,4.9-4.9,12.9,0,17.8L66.7,145c4.9,4.9,12.9,4.9,17.8,0l18.5-18.5l78-78l1.1-1.1
		c9.7-9.7,9.7-25.5,0-35.2s-25.5-9.7-35.2,0L67.8,91.3z"/>
	<line class="st1" x1="74.2" y1="107.4" x2="87" y2="120.1"/>
	<path class="st1" d="M51.4,129.8C13.5,142.2,5,184.1,5,184.1s35.3,1.3,50.2-24.2c2.4-4.1,3.8-13.1,10.6-15.7"/>
</g>
</svg>
