<svg  xmlns="http://www.w3.org/2000/svg" viewBox="0 0 130.29 18.69">
  <defs>
    <style>
      .cls-1 {
        fill: #262424;
      }

      .cls-2 {
        fill: #fff;
      }
    </style>
  </defs>
  <g>
    <rect class="cls-1" width="130.29" height="18.69"/>
    <path class="cls-2" d="M44.11,7.4h-6V8.82h5.4V9.94h-5.4v1.42h6.19V12.5H36.45V6.28h7.66Z"/>
    <path class="cls-2" d="M63.88,6.28V12.5H71.4V11.37H65.52V6.28Z"/>
    <path class="cls-2" d="M53.53,6.28,49,12.5h1.87l.76-1.13H56l.76,1.13h1.87L54.13,6.28Zm-1.07,3.94,1.42-2.12,1.37,2.12Z"/>
    <path class="cls-2" d="M29,9.92c1.14-.18,1.69-.76,1.69-1.77a1.8,1.8,0,0,0-.42-1.22,1.61,1.61,0,0,0-.53-.41,3.22,3.22,0,0,0-1.49-.23h-6l.82,1.13h5.14c.59,0,.88.23.88.68s-.32.72-1,.72h-4L24.9,10h2.48l1.86,2.54h1.62Z"/>
    <polygon class="cls-2" points="123.24 6.28 123.24 5.5 122.66 6 122.08 5.5 122.08 6.28 121.89 6.28 121.89 5.21 122.05 5.21 122.66 5.75 123.27 5.21 123.44 5.21 123.44 6.28 123.24 6.28"/>
    <polygon class="cls-2" points="120.97 6.28 120.97 5.39 120.47 5.39 120.47 5.21 121.65 5.21 121.65 5.39 121.16 5.39 121.16 6.28 120.97 6.28"/>
    <path class="cls-2" d="M91.41,6.28"/>
    <path class="cls-2" d="M13.73,6.28,9.21,12.5h1.87l.76-1.13h4.37L17,12.5h1.87L14.33,6.28Zm-1.12,3.94L14,8.11l1.42,2.12Z"/>
    <polygon class="cls-2" points="100.03 12.5 100.03 6.28 107.26 6.28 107.26 7.03 100.86 7.03 100.86 8.91 106.86 8.91 106.86 9.66 100.86 9.66 100.86 11.75 107.54 11.75 107.54 12.5 100.03 12.5"/>
    <rect class="cls-2" x="77.87" y="6.28" width="0.83" height="6.21"/>
    <path class="cls-2" d="M85.69,12.5V6.28h5A3.48,3.48,0,0,1,93.31,7a3.28,3.28,0,0,1,.9,2.34,2.94,2.94,0,0,1-1.75,2.9,5.51,5.51,0,0,1-1.8.21Zm.84-.74h3.84c1.34,0,1.87-.13,2.29-.54a2.52,2.52,0,0,0,.63-1.81A2.13,2.13,0,0,0,92,7.19,5.42,5.42,0,0,0,90.37,7H86.53Z"/>
    <path class="cls-2" d="M120.06,12.5l-1.14-1.56H114l-1.14,1.56h-1l4.52-6.21h.18l4.52,6.21Zm-5.55-2.27h3.89l-1.95-2.73Z"/>
  </g>
</svg>
