<svg xmlns="http://www.w3.org/2000/svg" xmlns:xlink="http://www.w3.org/1999/xlink" width="70" height="18" viewBox="0 0 70 18"><defs><path id="szika" d="M1439 2050h57v-4.5l-.04-.04c-.06-.07-.04-.2.04-.36v-1.1h2v.67l5.46 5.44a1 1 0 0 1 .43.43l.1.1c.04.04.04.12 0 .23a1.01 1.01 0 0 1-.02.37c.03.1.02.17-.02.2l-.15.16a1 1 0 0 1-.2.2l-5.6 5.58v.62h-.63c-.04.03-.1.02-.2 0H1496v-1.13c-.05-.13-.06-.23 0-.28V2052h-57a1 1 0 0 1 0-2zm59 2v2.59l2.6-2.59zm2.52-2l-2.52-2.51v2.51z"/></defs><g><g transform="translate(-1436 -2042)"><use fill="#2d2d2d" xlink:href="#szika"/><use fill="#3d3e3f" xlink:href="#szika"/></g></g></svg>