<svg xmlns="http://www.w3.org/2000/svg" xmlns:xlink="http://www.w3.org/1999/xlink" width="23" height="27" viewBox="0 0 23 27"><defs><path id="zqf5a" d="M1353.98 28a5.99 5.99 0 0 1 5.99 6h-.07v.05a1 1 0 1 1-2 0v-.04a1 1 0 0 1 .07-.37 4 4 0 0 0-7.97.37h-.01v3.04h11.08a2 2 0 0 1 1.92 1.8v10.27a2 2 0 0 1-1.99 1.94h-14a2 2 0 0 1-2-2V39.04a2 2 0 0 1 1.8-1.99h1.2v-.95l-.01-2.09.01-.14a5.99 5.99 0 0 1 5.98-5.87zm-4.86 11.05a1 1 0 0 1-.24 0h-.53l.65.02c-1.56 0-1.98.28-2 1.87l.01-1.89h-.02v10.02l12.34-.01c1.26-.05 1.63-.4 1.67-1.79V40.7c-.07-1.37-.52-1.62-2-1.62l.9-.02zm11.88 10v-1.6l-.01 1.6h-1.13zm0-10h-.01v.68zm-12 10.01h-.15zm-2-2.03v0zm0 .14c.02 1.53.41 1.87 1.85 1.9l-1.84-.02zm0-6.23v0z"/></defs><g><g transform="translate(-1342 -26)"><use fill="#fff" xlink:href="#zqf5a"/><use fill="#3cc2f9" xlink:href="#zqf5a"/></g></g></svg>