<svg xmlns="http://www.w3.org/2000/svg" xmlns:xlink="http://www.w3.org/1999/xlink" width="27" height="27" viewBox="0 0 27 27"><defs><path id="rau0a" d="M1307.59 29a9.58 9.58 0 0 1 8.9 13.14l-.06-.06a.96.96 0 0 1-1.65-.66v-.1c0-.24.1-.47.25-.64l-.08-.08a7.65 7.65 0 1 0-2 3.38l1.4.03 3.29 3.3v-.02l3.07 3.07a.96.96 0 1 1-1.35 1.35l-5.71-5.7a9.58 9.58 0 1 1-6.06-17z"/><linearGradient id="rau0b" x1="1309.99" x2="1309" y1="51.99" y2="29" gradientUnits="userSpaceOnUse"><stop offset="0" stop-color="#d6d6d6"/><stop offset="1" stop-color="#fff"/></linearGradient></defs><g><g transform="translate(-1296 -27)"><use fill="#fff" xlink:href="#rau0a"/><use fill="url(#rau0b)" xlink:href="#rau0a"/><use fill="#3cc2f9" xlink:href="#rau0a"/></g></g></svg>