<svg xmlns="http://www.w3.org/2000/svg" xmlns:xlink="http://www.w3.org/1999/xlink" width="18" height="70" viewBox="0 0 18 70"><defs><path id="nj2ra" d="M45 740a1 1 0 0 1 2 0v57h4.5l.04-.04c.07-.06.2-.04.36.04H53v2h-.67l-5.44 5.46a1 1 0 0 1-.43.43l-.1.1c-.04.04-.12.04-.23 0a1.01 1.01 0 0 1-.37-.02c-.1.03-.17.02-.2-.02l-.16-.15a1 1 0 0 1-.2-.2l-5.58-5.6H39v-.63c-.03-.04-.02-.1 0-.19V797h1.13c.13-.05.23-.06.28 0H45zm0 59h-2.59l2.59 2.6zm2 2.52l2.51-2.52H47z"/></defs><g><g transform="translate(-37 -737)"><use fill="#2d2d2d" xlink:href="#nj2ra"/><use fill="#3cc2f9" xlink:href="#nj2ra"/></g></g></svg>