<svg id="Слой_1" data-name="Слой 1" xmlns="http://www.w3.org/2000/svg" viewBox="0 0 264.68 28.73">
  <defs>
    <style>
      .cls-1 {
        fill: #278fd1;
      }
    </style>
  </defs>
  <title>logo_adgezin</title>
  <g>
    <g>
      <path class="cls-1" d="M23.6,26.32a7.52,7.52,0,0,1,.09,1.13.77.77,0,0,1-.28.63,1.69,1.69,0,0,1-.89.26q-.62,0-1.69,0-.76,0-1.23,0a3.35,3.35,0,0,1-.74-.11.61.61,0,0,1-.36-.24.94.94,0,0,1-.12-.44l-.7-5.17H8L5.36,27.45a1.93,1.93,0,0,1-.32.47,1.14,1.14,0,0,1-.52.29,4.47,4.47,0,0,1-.91.14q-.57,0-1.42,0a12.9,12.9,0,0,1-1.42-.06A1,1,0,0,1,.1,28a.71.71,0,0,1,0-.65,6.7,6.7,0,0,1,.51-1.11L13.06,3.44a3,3,0,0,1,.4-.55A1.26,1.26,0,0,1,14,2.58a4.37,4.37,0,0,1,1-.14q.63,0,1.64,0,1.17,0,1.86,0a4.79,4.79,0,0,1,1.06.14.78.78,0,0,1,.5.33,1.62,1.62,0,0,1,.16.6ZM15.78,7.44h0L10,18.38h7.24Z"/>
      <path class="cls-1" d="M43.69,27.59a.64.64,0,0,1-.2.35,1.23,1.23,0,0,1-.47.25,4,4,0,0,1-.79.15q-.49,0-1.22,0t-1.19,0a3,3,0,0,1-.74-.15.67.67,0,0,1-.35-.25.41.41,0,0,1,0-.35l1.39-7h-7l-1.39,7a.67.67,0,0,1-.19.35,1.14,1.14,0,0,1-.46.25,4,4,0,0,1-.81.15q-.5,0-1.21,0a11.93,11.93,0,0,1-1.2,0,3.16,3.16,0,0,1-.74-.15.62.62,0,0,1-.35-.25.51.51,0,0,1,0-.35L30.23,9.85a.68.68,0,0,1,.19-.35,1.14,1.14,0,0,1,.46-.25,4,4,0,0,1,.8-.15q.49,0,1.22,0a11.93,11.93,0,0,1,1.2,0,3.13,3.13,0,0,1,.74.15.63.63,0,0,1,.35.25.52.52,0,0,1,0,.35l-1.33,6.65h7l1.33-6.65a.7.7,0,0,1,.18-.35,1.06,1.06,0,0,1,.45-.25,4,4,0,0,1,.81-.15q.5,0,1.21,0a12,12,0,0,1,1.21,0,3.14,3.14,0,0,1,.73.15.68.68,0,0,1,.36.25.48.48,0,0,1,0,.35Z"/>
      <path class="cls-1" d="M76.54,27.59a.67.67,0,0,1-.19.35,1.15,1.15,0,0,1-.47.25,4.24,4.24,0,0,1-.81.15q-.49,0-1.22,0t-1.19,0a3,3,0,0,1-.74-.15.67.67,0,0,1-.35-.25.42.42,0,0,1,0-.35L73.68,17q.08-.46.14-.91a6.8,6.8,0,0,0,.06-.91,2.91,2.91,0,0,0-.35-1.51,1.33,1.33,0,0,0-1.24-.58,3.19,3.19,0,0,0-1.65.52A7.2,7.2,0,0,0,69,15,9.87,9.87,0,0,0,67.6,17a9.42,9.42,0,0,0-.87,2.52l-1.61,8a.67.67,0,0,1-.19.35,1.14,1.14,0,0,1-.47.25,4.21,4.21,0,0,1-.81.15q-.49,0-1.22,0a11.71,11.71,0,0,1-1.18,0,3,3,0,0,1-.73-.15.67.67,0,0,1-.35-.25.48.48,0,0,1,0-.35L62.24,17A6.32,6.32,0,0,0,62.4,16a9.29,9.29,0,0,0,0-.94,2.65,2.65,0,0,0-.36-1.44,1.34,1.34,0,0,0-1.23-.57,3.2,3.2,0,0,0-1.65.52A7.19,7.19,0,0,0,57.57,15,9.87,9.87,0,0,0,56.18,17a9.42,9.42,0,0,0-.87,2.52l-1.61,8a.67.67,0,0,1-.19.35,1.14,1.14,0,0,1-.46.25,4,4,0,0,1-.81.15q-.5,0-1.21,0a11.94,11.94,0,0,1-1.2,0,3.18,3.18,0,0,1-.74-.15.62.62,0,0,1-.35-.25.51.51,0,0,1,0-.35L52.27,9.83a.75.75,0,0,1,.17-.35.88.88,0,0,1,.4-.24,3.53,3.53,0,0,1,.7-.14,9.16,9.16,0,0,1,1,0,8.31,8.31,0,0,1,1,0,2.47,2.47,0,0,1,.61.14.51.51,0,0,1,.29.24.56.56,0,0,1,0,.35l-.58,2.92A8.13,8.13,0,0,1,57,11.33a9,9,0,0,1,3.51-2.25,6.44,6.44,0,0,1,2.16-.37,5.86,5.86,0,0,1,2,.31,3.77,3.77,0,0,1,1.39.86,3.72,3.72,0,0,1,.83,1.28,5.81,5.81,0,0,1,.37,1.59,8.82,8.82,0,0,1,1.16-1.43A9.51,9.51,0,0,1,70,10,9,9,0,0,1,72,9.08a6.29,6.29,0,0,1,2.13-.37,6.18,6.18,0,0,1,2.34.39A3.87,3.87,0,0,1,78,10.18a4.25,4.25,0,0,1,.83,1.61,7.38,7.38,0,0,1,.26,2,12.58,12.58,0,0,1-.08,1.4q-.08.71-.24,1.44Z"/>
      <path class="cls-1" d="M97.91,27.61a.74.74,0,0,1-.17.35.88.88,0,0,1-.4.24,3.57,3.57,0,0,1-.69.14,9.1,9.1,0,0,1-1,0,8.31,8.31,0,0,1-1,0A2.5,2.5,0,0,1,94,28.2a.51.51,0,0,1-.29-.24.47.47,0,0,1,0-.35l.54-2.88a6.93,6.93,0,0,1-1.09,1.4,9.49,9.49,0,0,1-1.6,1.29,8.78,8.78,0,0,1-2,.95,6.7,6.7,0,0,1-2.17.36,6.34,6.34,0,0,1-2.36-.39,4,4,0,0,1-1.55-1.05,4.11,4.11,0,0,1-.86-1.6,7.33,7.33,0,0,1-.27-2,11,11,0,0,1,.09-1.38q.09-.71.23-1.44l2.19-11a.67.67,0,0,1,.19-.35,1.06,1.06,0,0,1,.46-.24,4.62,4.62,0,0,1,.81-.14q.5,0,1.21,0a12,12,0,0,1,1.2,0,3.42,3.42,0,0,1,.73.14.63.63,0,0,1,.35.24.48.48,0,0,1,0,.35L87.78,20.49a7.75,7.75,0,0,0-.15.92,8.84,8.84,0,0,0,0,.92,3.86,3.86,0,0,0,.09.87,1.86,1.86,0,0,0,.29.67,1.23,1.23,0,0,0,.51.42,1.8,1.8,0,0,0,.75.14,3.33,3.33,0,0,0,1.7-.53,6.89,6.89,0,0,0,1.68-1.45A10.49,10.49,0,0,0,94,20.24,11.66,11.66,0,0,0,95,17.51l1.51-7.68a.54.54,0,0,1,.18-.35,1.15,1.15,0,0,1,.47-.24,4.58,4.58,0,0,1,.81-.14c.33,0,.74,0,1.21,0a12,12,0,0,1,1.2,0,3.63,3.63,0,0,1,.74.14.58.58,0,0,1,.35.24.51.51,0,0,1,0,.35Z"/>
      <path class="cls-1" d="M119.41,27.61a.81.81,0,0,1-.63.6,6.21,6.21,0,0,1-1.76.18q-.62,0-1,0a2.6,2.6,0,0,1-.63-.13.51.51,0,0,1-.31-.24.6.6,0,0,1,0-.37l.56-2.84a5.4,5.4,0,0,1-1,1.34,8.05,8.05,0,0,1-1.55,1.28,9.26,9.26,0,0,1-2,1,6.75,6.75,0,0,1-2.24.38,5.62,5.62,0,0,1-2.65-.56,4.57,4.57,0,0,1-1.69-1.5,6.21,6.21,0,0,1-.91-2.16,11.77,11.77,0,0,1-.27-2.55,17.29,17.29,0,0,1,.24-2.74,18.3,18.3,0,0,1,.74-3,16.21,16.21,0,0,1,1.27-2.83A10.8,10.8,0,0,1,107.49,11,8.54,8.54,0,0,1,110,9.34a7.71,7.71,0,0,1,3.17-.63,6.06,6.06,0,0,1,2.92.69,6.68,6.68,0,0,1,2.23,2l.32-1.57a.81.81,0,0,1,.63-.6A6.21,6.21,0,0,1,121,9.05a8.35,8.35,0,0,1,1,0,2.67,2.67,0,0,1,.63.14.56.56,0,0,1,.31.24.51.51,0,0,1,0,.35Zm-2.47-12.45a5.3,5.3,0,0,0-1.54-1.64,3.53,3.53,0,0,0-2-.55,3,3,0,0,0-1.53.4,4.34,4.34,0,0,0-1.23,1.06,7.44,7.44,0,0,0-.95,1.54,12.25,12.25,0,0,0-.68,1.82,13.6,13.6,0,0,0-.4,1.91,13.36,13.36,0,0,0-.13,1.78,6.91,6.91,0,0,0,.09,1.13,2.85,2.85,0,0,0,.33,1,1.85,1.85,0,0,0,.64.67,1.88,1.88,0,0,0,1,.25,3.58,3.58,0,0,0,1.79-.53,6.84,6.84,0,0,0,1.71-1.43,10,10,0,0,0,1.4-2.11,10.21,10.21,0,0,0,.88-2.58Z"/>
      <path class="cls-1" d="M144.5,10.92q0,.88-.08,2.09t-.31,2.63a29.74,29.74,0,0,1-.64,2.93,20.2,20.2,0,0,1-1.05,3,16,16,0,0,1-1.57,2.76,11,11,0,0,1-2.18,2.29,10.06,10.06,0,0,1-2.88,1.56,11.07,11.07,0,0,1-3.7.58,10.15,10.15,0,0,1-3.26-.47,5.64,5.64,0,0,1-2.26-1.37,5.51,5.51,0,0,1-1.3-2.21,9.74,9.74,0,0,1-.42-3,16.11,16.11,0,0,1,.24-2.66,16.63,16.63,0,0,1,.75-2.84,15.74,15.74,0,0,1,1.28-2.74A10.28,10.28,0,0,1,129,11.14a8.57,8.57,0,0,1,2.5-1.61,8,8,0,0,1,3.17-.6,7.42,7.42,0,0,1,1.7.19,5.67,5.67,0,0,1,1.45.55,4.45,4.45,0,0,1,1.12.87,4,4,0,0,1,.76,1.19,3.39,3.39,0,0,0,0-.36V10.9a8.93,8.93,0,0,0-.31-2.38,5.13,5.13,0,0,0-1-2,5,5,0,0,0-2-1.36,8.31,8.31,0,0,0-3.08-.5,1.48,1.48,0,0,1-.87-.18.73.73,0,0,1-.22-.6c0-.08,0-.2,0-.36s0-.34.08-.56.08-.43.13-.66.1-.44.16-.66a4.26,4.26,0,0,1,.2-.57A1.18,1.18,0,0,1,133,.76a.82.82,0,0,1,.35-.19,2.73,2.73,0,0,1,.73-.07,15.32,15.32,0,0,1,4.37.58,8.12,8.12,0,0,1,3.28,1.83,8.1,8.1,0,0,1,2.06,3.23A14.12,14.12,0,0,1,144.5,10.92Zm-6.23,6.49a5.59,5.59,0,0,0-.79-3.19,2.63,2.63,0,0,0-2.32-1.14,3.56,3.56,0,0,0-1.75.43,4.63,4.63,0,0,0-1.34,1.11,7,7,0,0,0-1,1.56,11.39,11.39,0,0,0-.64,1.77,13.6,13.6,0,0,0-.35,1.73,11.22,11.22,0,0,0-.11,1.43,4.36,4.36,0,0,0,.64,2.54,2.33,2.33,0,0,0,2,.91,4.13,4.13,0,0,0,1.71-.35,5.18,5.18,0,0,0,1.4-.93A6.29,6.29,0,0,0,136.9,22a9.21,9.21,0,0,0,.77-1.53,9.09,9.09,0,0,0,.46-1.58A7.85,7.85,0,0,0,138.27,17.41Z"/>
      <path class="cls-1" d="M162,13.69a5.08,5.08,0,0,1-1.7,3.95,8.27,8.27,0,0,1-2.1,1.38,17.88,17.88,0,0,1-2.9,1.05,21.61,21.61,0,0,0-2.19.73,6.59,6.59,0,0,0-1.36.72,2.15,2.15,0,0,0-.7.76,2,2,0,0,0-.19.87,1.42,1.42,0,0,0,.67,1.28,3.61,3.61,0,0,0,1.94.43,8.53,8.53,0,0,0,2.15-.25,13.2,13.2,0,0,0,1.68-.55q.73-.3,1.24-.55a2.09,2.09,0,0,1,.86-.25.39.39,0,0,1,.35.17,1,1,0,0,1,.11.51,6.76,6.76,0,0,1,0,.71,7.81,7.81,0,0,1-.17.95,6.88,6.88,0,0,1-.31,1,2.17,2.17,0,0,1-.45.73,2.77,2.77,0,0,1-.87.5,10.12,10.12,0,0,1-1.5.47q-.88.21-1.9.35a15.44,15.44,0,0,1-2.08.14,11.26,11.26,0,0,1-3.06-.37,6.34,6.34,0,0,1-2.13-1,3.91,3.91,0,0,1-1.23-1.53,4.74,4.74,0,0,1-.4-1.95,6.29,6.29,0,0,1,.43-2.39,5.39,5.39,0,0,1,1.3-1.89,8.79,8.79,0,0,1,2.21-1.49,18.94,18.94,0,0,1,3.14-1.17q1.15-.32,2-.63a6.12,6.12,0,0,0,1.29-.65,2.21,2.21,0,0,0,.7-.72,1.74,1.74,0,0,0,.21-.86,1.44,1.44,0,0,0-.63-1.24,3,3,0,0,0-1.78-.45,7.55,7.55,0,0,0-2,.25,12.26,12.26,0,0,0-1.55.54,11.63,11.63,0,0,0-1.1.54,1.55,1.55,0,0,1-.64.25.39.39,0,0,1-.36-.16,1.23,1.23,0,0,1-.1-.6,4.88,4.88,0,0,1,.06-.64,7.21,7.21,0,0,1,.18-.87,5.81,5.81,0,0,1,.31-.88,2.24,2.24,0,0,1,.45-.69,2.92,2.92,0,0,1,.85-.54,8.66,8.66,0,0,1,1.29-.46,12.45,12.45,0,0,1,1.61-.32,13.3,13.3,0,0,1,1.78-.12,10.77,10.77,0,0,1,2.81.34,6.32,6.32,0,0,1,2.12,1,4.37,4.37,0,0,1,1.33,1.56A4.59,4.59,0,0,1,162,13.69Z"/>
      <path class="cls-1" d="M181.9,13.75a5.15,5.15,0,0,1-.65,2.58,5.5,5.5,0,0,1-2,2,11,11,0,0,1-3.46,1.26,24.82,24.82,0,0,1-5,.44h-1.83q-.08.46-.12.9t0,.83a3.24,3.24,0,0,0,.84,2.43,3.74,3.74,0,0,0,2.69.82,13.27,13.27,0,0,0,2.36-.19,18.11,18.11,0,0,0,1.83-.42c.52-.15,1-.29,1.3-.42a2.53,2.53,0,0,1,.76-.19.39.39,0,0,1,.34.14.76.76,0,0,1,.1.44,5.77,5.77,0,0,1-.06.78,7.87,7.87,0,0,1-.17.87,5,5,0,0,1-.28.81,1.71,1.71,0,0,1-.39.58,2.56,2.56,0,0,1-.87.48,11.54,11.54,0,0,1-1.53.44,20,20,0,0,1-2,.33,19.62,19.62,0,0,1-2.27.13,12.45,12.45,0,0,1-3.33-.4,6.15,6.15,0,0,1-2.38-1.21A5,5,0,0,1,164.28,25a8.46,8.46,0,0,1-.48-3,17.74,17.74,0,0,1,.25-2.85,15.64,15.64,0,0,1,.81-3,14.81,14.81,0,0,1,1.43-2.83A10.36,10.36,0,0,1,168.4,11a10.1,10.1,0,0,1,2.88-1.64A10.46,10.46,0,0,1,175,8.71a10,10,0,0,1,3.11.43,6.34,6.34,0,0,1,2.14,1.13,4.56,4.56,0,0,1,1.24,1.61A4.49,4.49,0,0,1,181.9,13.75Zm-4.91.38a1.66,1.66,0,0,0-.63-1.32,2.76,2.76,0,0,0-1.82-.53,4.25,4.25,0,0,0-1.78.36,4.59,4.59,0,0,0-1.38,1,5.88,5.88,0,0,0-1,1.43,9,9,0,0,0-.69,1.76h1.67a14.3,14.3,0,0,0,2.67-.21,6.07,6.07,0,0,0,1.73-.57,2.47,2.47,0,0,0,1-.85A2,2,0,0,0,177,14.13Z"/>
      <path class="cls-1" d="M199.11,13.19a4.44,4.44,0,0,1-.32,1.64,5.09,5.09,0,0,1-.9,1.47,6.51,6.51,0,0,1-3.14,2l0,0a4.11,4.11,0,0,1,1.23.36,3.69,3.69,0,0,1,1.05.74,3.34,3.34,0,0,1,.72,1.06,3.38,3.38,0,0,1,.26,1.34,6.11,6.11,0,0,1-2.32,4.8,9,9,0,0,1-3,1.52,14.06,14.06,0,0,1-4.27.58,12.42,12.42,0,0,1-1.87-.14,14.07,14.07,0,0,1-1.69-.36,8.63,8.63,0,0,1-1.36-.5,3.13,3.13,0,0,1-.87-.56,1.09,1.09,0,0,1-.26-.8,5.06,5.06,0,0,1,.06-.65,6.56,6.56,0,0,1,.19-.89,3.45,3.45,0,0,1,.32-.79.55.55,0,0,1,.47-.33,1.33,1.33,0,0,1,.67.22c.25.15.55.31.91.48a8.3,8.3,0,0,0,1.29.48,6.72,6.72,0,0,0,1.85.22,7.47,7.47,0,0,0,1.93-.23,4.46,4.46,0,0,0,1.43-.64,2.92,2.92,0,0,0,.88-1,2.36,2.36,0,0,0,.31-1.18,1.53,1.53,0,0,0-.82-1.37,3.81,3.81,0,0,0-1.16-.41,9.25,9.25,0,0,0-1.82-.15h-2a.71.71,0,0,1-.5-.15.58.58,0,0,1-.16-.45q0-.14,0-.59a5.47,5.47,0,0,1,.19-.93,3,3,0,0,1,.39-.85.73.73,0,0,1,.63-.37h1.61a10.36,10.36,0,0,0,2.1-.19,4.84,4.84,0,0,0,1.5-.55,2.56,2.56,0,0,0,.91-.87,2.25,2.25,0,0,0,.31-1.17,1.46,1.46,0,0,0-.72-1.33,4,4,0,0,0-2.07-.44,7.63,7.63,0,0,0-2,.24,12.8,12.8,0,0,0-1.59.53q-.7.29-1.18.53a1.92,1.92,0,0,1-.69.24q-.42,0-.42-.66a4,4,0,0,1,.07-.66,8,8,0,0,1,.19-.82,6.31,6.31,0,0,1,.28-.79,1.81,1.81,0,0,1,.36-.57,3.74,3.74,0,0,1,.88-.54,9.23,9.23,0,0,1,1.48-.54,17.66,17.66,0,0,1,1.89-.41,13.1,13.1,0,0,1,2.11-.17,12,12,0,0,1,3,.32,5.85,5.85,0,0,1,2,.92,3.75,3.75,0,0,1,1.19,1.42A4.23,4.23,0,0,1,199.11,13.19Z"/>
      <path class="cls-1" d="M217.27,27.61a.74.74,0,0,1-.17.35.88.88,0,0,1-.4.24,3.57,3.57,0,0,1-.69.14,9.1,9.1,0,0,1-1,0,8.31,8.31,0,0,1-1,0,2.5,2.5,0,0,1-.61-.14.51.51,0,0,1-.29-.24.47.47,0,0,1,0-.35l.54-2.88a6.93,6.93,0,0,1-1.09,1.4,9.49,9.49,0,0,1-1.6,1.29,8.78,8.78,0,0,1-2,.95,6.7,6.7,0,0,1-2.17.36,6.34,6.34,0,0,1-2.36-.39,4,4,0,0,1-1.55-1.05,4.11,4.11,0,0,1-.86-1.6,7.33,7.33,0,0,1-.27-2,11,11,0,0,1,.09-1.38q.09-.71.23-1.44l2.19-11a.67.67,0,0,1,.19-.35,1.06,1.06,0,0,1,.46-.24,4.62,4.62,0,0,1,.81-.14q.5,0,1.21,0a12,12,0,0,1,1.2,0,3.42,3.42,0,0,1,.73.14.63.63,0,0,1,.35.24.48.48,0,0,1,0,.35l-2.11,10.66a7.75,7.75,0,0,0-.15.92,8.84,8.84,0,0,0,0,.92,3.86,3.86,0,0,0,.09.87,1.86,1.86,0,0,0,.29.67,1.23,1.23,0,0,0,.51.42,1.8,1.8,0,0,0,.75.14,3.33,3.33,0,0,0,1.7-.53A6.89,6.89,0,0,0,212,22.43a10.49,10.49,0,0,0,1.42-2.19,11.66,11.66,0,0,0,.94-2.74l1.51-7.68a.54.54,0,0,1,.18-.35,1.15,1.15,0,0,1,.47-.24,4.58,4.58,0,0,1,.81-.14c.33,0,.74,0,1.21,0a12,12,0,0,1,1.2,0,3.63,3.63,0,0,1,.74.14.58.58,0,0,1,.35.24.51.51,0,0,1,0,.35Z"/>
      <path class="cls-1" d="M239.32,27.59a.65.65,0,0,1-.2.35,1.24,1.24,0,0,1-.47.25,4,4,0,0,1-.79.15q-.49,0-1.22,0t-1.19,0a3,3,0,0,1-.74-.15.67.67,0,0,1-.35-.25.42.42,0,0,1,0-.35l1.39-7h-7l-1.39,7a.67.67,0,0,1-.19.35,1.14,1.14,0,0,1-.46.25,4,4,0,0,1-.81.15q-.5,0-1.21,0a11.94,11.94,0,0,1-1.2,0,3.18,3.18,0,0,1-.74-.15.62.62,0,0,1-.35-.25.51.51,0,0,1,0-.35l3.54-17.75A.67.67,0,0,1,226,9.5a1.13,1.13,0,0,1,.46-.25,4,4,0,0,1,.8-.15q.49,0,1.22,0a11.94,11.94,0,0,1,1.2,0,3.15,3.15,0,0,1,.74.15.62.62,0,0,1,.35.25.51.51,0,0,1,0,.35l-1.33,6.65h7l1.33-6.65A.7.7,0,0,1,238,9.5a1.05,1.05,0,0,1,.45-.25,4,4,0,0,1,.81-.15q.5,0,1.21,0a12,12,0,0,1,1.2,0,3.14,3.14,0,0,1,.74.15.67.67,0,0,1,.36.25.48.48,0,0,1,0,.35Z"/>
    </g>
    <path class="cls-1" d="M264.68,7.32a8.51,8.51,0,0,1-.75,3.58,8.81,8.81,0,0,1-2,2.79,9.31,9.31,0,0,1-2.83,1.82,8.58,8.58,0,0,1-3.3.66,8.49,8.49,0,0,1-3.24-.59A7.07,7.07,0,0,1,250.15,14a6.85,6.85,0,0,1-1.49-2.31,7.48,7.48,0,0,1-.52-2.77,8.68,8.68,0,0,1,.75-3.62,8.83,8.83,0,0,1,2-2.83A9.14,9.14,0,0,1,253.74.66,8.72,8.72,0,0,1,257.06,0a8.54,8.54,0,0,1,3.2.57,7.07,7.07,0,0,1,2.4,1.55,6.63,6.63,0,0,1,1.5,2.32A7.91,7.91,0,0,1,264.68,7.32Zm-2.37.22a6.85,6.85,0,0,0-.34-2.2,4.74,4.74,0,0,0-1-1.74,4.67,4.67,0,0,0-1.7-1.14A6.33,6.33,0,0,0,256.88,2a6.19,6.19,0,0,0-2.46.5A6.28,6.28,0,0,0,251,6a6.8,6.8,0,0,0-.51,2.65,6.66,6.66,0,0,0,.37,2.29A4.56,4.56,0,0,0,252,12.64a5,5,0,0,0,1.73,1.09,6.43,6.43,0,0,0,2.31.39,6.22,6.22,0,0,0,2.45-.49,6.08,6.08,0,0,0,2-1.36,6.46,6.46,0,0,0,1.35-2.09A6.92,6.92,0,0,0,262.31,7.54Zm-2.71,3.68a1.36,1.36,0,0,1,0,.43.37.37,0,0,1-.17.26A1,1,0,0,1,259,12l-.81,0a2.89,2.89,0,0,1-1-.12.45.45,0,0,1-.27-.4l-.1-1.27a2,2,0,0,0-.29-.92.78.78,0,0,0-.67-.28h-.52l-.5,2.55a.42.42,0,0,1-.32.35,3.84,3.84,0,0,1-1,.09,3,3,0,0,1-1-.1.29.29,0,0,1-.18-.34l1.35-6.82a1.57,1.57,0,0,1,.44-.84,1.26,1.26,0,0,1,.9-.3h2.25a6.94,6.94,0,0,1,1.41.13,3,3,0,0,1,1,.4,1.78,1.78,0,0,1,.62.68,2.15,2.15,0,0,1,.21,1,2.42,2.42,0,0,1-.18.94,2.18,2.18,0,0,1-.5.74,3.18,3.18,0,0,1-.74.53,4.12,4.12,0,0,1-.87.34,1.76,1.76,0,0,1,.77.52,2.13,2.13,0,0,1,.43,1Zm-1.81-5.09a.67.67,0,0,0,0-.26.62.62,0,0,0-.16-.22.72.72,0,0,0-.32-.15,2.33,2.33,0,0,0-.53,0H256l-.38,1.87h.66a2.35,2.35,0,0,0,.74-.1,1.18,1.18,0,0,0,.47-.27.87.87,0,0,0,.23-.39A1.65,1.65,0,0,0,257.79,6.13Z"/>
  </g>
</svg>
