<svg id="Слой_1" data-name="Слой 1" xmlns="http://www.w3.org/2000/svg" viewBox="0 0 20.82 40.15">
  <defs>
    <style>
      .cls-1, .cls-2 {
        fill: none;
        stroke: #38b9ef;
      }

      .cls-1 {
        stroke-miterlimit: 10;
      }

      .cls-2 {
        stroke-linecap: round;
        stroke-linejoin: round;
      }

      .cls-3 {
        fill: #38b9ef;
      }
    </style>
  </defs>
  <title>icon_wooman</title>
  <g>
    <circle class="cls-1" cx="10.41" cy="4.67" r="4.17"/>
    <circle class="cls-1" cx="10.41" cy="20.85" r="4.96"/>
    <g>
      <path class="cls-2" d="M10.41,29.48v8.6a1.57,1.57,0,0,1-1.56,1.56h0a1.57,1.57,0,0,1-1.56-1.56V29.48"/>
      <path class="cls-2" d="M13.54,29.48v8.6A1.57,1.57,0,0,1,12,39.65h0a1.57,1.57,0,0,1-1.56-1.56V29.48"/>
    </g>
    <line class="cls-2" x1="2.61" y1="26.63" x2="3.91" y2="22.92"/>
    <line class="cls-2" x1="18.22" y1="26.63" x2="16.91" y2="22.92"/>
    <path class="cls-2" d="M20.24,23.51,16.18,12a1.54,1.54,0,0,0-.45-.65,1.55,1.55,0,0,0-1.15-.51H6.24a1.55,1.55,0,0,0-1.15.51,1.54,1.54,0,0,0-.45.65L.59,23.51a1.57,1.57,0,0,0,1,2l.12,0a1.56,1.56,0,0,0,1.39-.19L2,28.42a.73.73,0,0,0,.45.93h16a.73.73,0,0,0,.45-.93l-1.08-3.07a1.56,1.56,0,0,0,1.39.19l.12,0A1.57,1.57,0,0,0,20.24,23.51Z"/>
    <path class="cls-3" d="M10.41,19.89a1.19,1.19,0,0,0-2.3.38c0,1.8,2.3,3.16,2.3,3.16s2.3-1.24,2.3-3.16A1.19,1.19,0,0,0,10.41,19.89Z"/>
  </g>
</svg>
