<svg id="Слой_1" data-name="Слой 1" xmlns="http://www.w3.org/2000/svg" viewBox="0 0 36.57 39.08">
  <defs>
    <style>
      .cls-1 {
        fill: none;
        stroke: #38b9ef;
        stroke-linecap: round;
        stroke-linejoin: round;
      }
    </style>
  </defs>
  <title>icon_spine</title>
  <g>
    <path class="cls-1" d="M33.59,24.06c-5.1-1.28-8.92,8.32-8.92,8.32H11.9S8.08,22.78,3,24.06s-.76,12-.76,12v2.55H8.84A3.59,3.59,0,0,1,11.9,37H24.67a3.59,3.59,0,0,1,3.06,1.61h6.62V36S38.68,25.33,33.59,24.06Z"/>
    <path class="cls-1" d="M20.94,26.32h-.57V24.75h.57a1.44,1.44,0,0,0,0-2.89H15.63a1.44,1.44,0,1,0,0,2.89h.57v1.56h-.57a1.44,1.44,0,1,0,0,2.89h5.31a1.44,1.44,0,1,0,0-2.89Z"/>
    <path class="cls-1" d="M20.94,15.78h-.57V14.22h.57a1.44,1.44,0,1,0,0-2.89H15.63a1.44,1.44,0,1,0,0,2.89h.57v1.56h-.57a1.44,1.44,0,0,0,0,2.89h5.31a1.44,1.44,0,0,0,0-2.89Z"/>
    <path class="cls-1" d="M20.94,5h-.57V3.39h.57a1.44,1.44,0,1,0,0-2.89H15.63a1.44,1.44,0,0,0,0,2.89h.57V5h-.57a1.44,1.44,0,1,0,0,2.89h5.31a1.44,1.44,0,1,0,0-2.89Z"/>
    <g>
      <line class="cls-1" x1="16.52" y1="7.84" x2="16.52" y2="11.33"/>
      <line class="cls-1" x1="20.05" y1="7.84" x2="20.05" y2="11.33"/>
      <line class="cls-1" x1="16.52" y1="18.71" x2="16.52" y2="21.86"/>
      <line class="cls-1" x1="20.05" y1="18.71" x2="20.05" y2="21.86"/>
      <line class="cls-1" x1="16.52" y1="29.2" x2="16.52" y2="32.35"/>
      <line class="cls-1" x1="20.05" y1="29.2" x2="20.05" y2="32.35"/>
    </g>
  </g>
</svg>
