<svg   xmlns="http://www.w3.org/2000/svg" viewBox="0 0 687.19 400.47"><defs><style>.cls-1{fill:#b5005a;stroke:#b5005a;stroke-linecap:round;stroke-linejoin:round;stroke-width:.47px}.cls-2{fill:#0064aa}</style></defs><path class="cls-1" d="M.23 66.1S149.9.23 345.22.23 687 66.35 687 66.35s-143-50-341.8-50S.23 66.1.23 66.1zM.23 334.37s149.66 65.86 345 65.86S687 334.12 687 334.12s-143 50-341.8 50S.23 334.37.23 334.37z"/><g><path class="cls-2" d="M134.09 172.18q-21.58-11-44-11-14.88 0-22.79 3.49t-7.91 9.65q0 6.44 8.44 9.38 6 2.14 19.7 2.95 20.11 1.34 26.54 2.14 18.23 2.42 26.94 9t8.71 18.63q0 15.42-13.67 23.86t-39.27 8.44q-37.13 0-57.77-16.35l8.85-11.66A92.33 92.33 0 0 0 97 234.65q17 0 26.4-4.69 9-4.56 9-12.47 0-9.24-11.79-12.33-6.17-1.61-33.24-3.35-24-1.61-33.64-6.43-11.26-5.63-11.26-18.9 0-13.67 12.8-21.58t36.06-7.9q31.37 0 52.54 14.34zM271.21 163.88h-46.38v82.57h-16.08v-82.57h-46.38V149.4h108.84zM384.47 246.44h-17.59l-11.19-21.72h-65.36l-11.18 21.72h-17.59l51.34-97h20.24zm-36.59-36.19l-24.72-47-25 47zM464.76 149.4q25.33 0 40.15 13.47t14.8 36.13q0 20.78-15.68 34.58-14.61 12.87-36.19 12.87h-64.47v-97zm4.42 82.6q14.47 0 23.79-9.35t9.32-24q0-15.6-10-25.16t-26.2-9.55h-46.64V232zM649.72 246.44h-17.59l-11.18-21.72h-65.36l-11.19 21.72h-17.59l51.34-97h20.24zm-36.59-36.19l-24.72-47-25 47z"/></g></svg>