<svg xmlns="http://www.w3.org/2000/svg" xmlns:xlink="http://www.w3.org/1999/xlink" width="17" height="24" viewBox="0 0 17 24"><defs><path id="vxv7a" d="M351.99 530.01l-.31-.36c-.28-.31-6.67-7.74-6.67-12.6 0-3.9 3.14-7.06 7-7.06a7.06 7.06 0 0 1 6.98 7.06c.02 4.86-6.41 12.29-6.69 12.6zm3-13.18a2.97 2.97 0 0 0-2.99-2.93c-1.65 0-3 1.31-3 2.93a2.97 2.97 0 0 0 3 2.93c1.65 0 3-1.32 3-2.93z"/></defs><g><g transform="translate(-344 -508)"><use fill="#e06919" xlink:href="#vxv7a"/><use fill="#3cc2f9" xlink:href="#vxv7a"/></g></g></svg>